HIERARCHY
ROOT Hips
{
 OFFSET 0.000000 0.000000 0.000000
 CHANNELS 6 Xposition Yposition Zposition Yrotation Xrotation Zrotation
 JOINT Chest
 {
  OFFSET 0.000000 9.585900 0.002600
  CHANNELS 3 Yrotation Xrotation Zrotation
  JOINT Chest2
  {
   OFFSET 0.000000 9.601200 -0.005300
   CHANNELS 3 Yrotation Xrotation Zrotation
   JOINT Chest3
   {
    OFFSET 0.000000 9.561800 0.000000
    CHANNELS 3 Yrotation Xrotation Zrotation
    JOINT Chest4
    {
     OFFSET 0.000000 9.552100 0.000000
     CHANNELS 3 Yrotation Xrotation Zrotation
     JOINT Neck
     {
      OFFSET 0.000000 14.453000 0.000000
      CHANNELS 3 Yrotation Xrotation Zrotation
      JOINT Head
      {
       OFFSET 0.000000 8.936500 -0.011300
       CHANNELS 3 Yrotation Xrotation Zrotation
       End Site
       {
        OFFSET 0.000000 17.073600 -0.006000
       }
      }
     }
     JOINT RightCollar
     {
      OFFSET -2.921100 9.558500 0.000000
      CHANNELS 3 Yrotation Xrotation Zrotation
      JOINT RightShoulder
      {
       OFFSET -13.519700 0.000000 0.000000
       CHANNELS 3 Yrotation Xrotation Zrotation
       JOINT RightElbow
       {
        OFFSET 0.000000 -29.696600 0.000000
        CHANNELS 3 Yrotation Xrotation Zrotation
        JOINT RightWrist
        {
         OFFSET 0.000000 -24.004700 0.000000
         CHANNELS 3 Yrotation Xrotation Zrotation
         End Site
         {
          OFFSET 0.000000 -17.728500 0.000000
         }
        }
       }
      }
     }
     JOINT LeftCollar
     {
      OFFSET 2.921100 9.558500 0.000000
      CHANNELS 3 Yrotation Xrotation Zrotation
      JOINT LeftShoulder
      {
       OFFSET 13.519700 0.000000 0.000000
       CHANNELS 3 Yrotation Xrotation Zrotation
       JOINT LeftElbow
       {
        OFFSET 0.000000 -29.696600 0.000000
        CHANNELS 3 Yrotation Xrotation Zrotation
        JOINT LeftWrist
        {
         OFFSET 0.000000 -24.004700 0.000000
         CHANNELS 3 Yrotation Xrotation Zrotation
         End Site
         {
          OFFSET 0.000000 -17.728500 0.000000
         }
        }
       }
      }
     }
    }
   }
  }
 }
 JOINT RightHip
 {
  OFFSET -7.771700 -0.012900 -0.001300
  CHANNELS 3 Yrotation Xrotation Zrotation
  JOINT RightKnee
  {
   OFFSET 0.000000 -40.869800 0.001200
   CHANNELS 3 Yrotation Xrotation Zrotation
   JOINT RightAnkle
   {
    OFFSET 0.000000 -39.717900 0.002100
    CHANNELS 3 Yrotation Xrotation Zrotation
    JOINT RightToe
    {
     OFFSET 0.000000 -4.965400 11.033500
     CHANNELS 3 Yrotation Xrotation Zrotation
     End Site
     {
      OFFSET 0.000000 -1.423100 5.872300
     }
    }
   }
  }
 }
 JOINT LeftHip
 {
  OFFSET 7.771700 -0.012900 -0.001300
  CHANNELS 3 Yrotation Xrotation Zrotation
  JOINT LeftKnee
  {
   OFFSET 0.000000 -40.869800 0.001200
   CHANNELS 3 Yrotation Xrotation Zrotation
   JOINT LeftAnkle
   {
    OFFSET 0.000000 -39.717900 0.002100
    CHANNELS 3 Yrotation Xrotation Zrotation
    JOINT LeftToe
    {
     OFFSET 0.000000 -4.965400 11.033500
     CHANNELS 3 Yrotation Xrotation Zrotation
     End Site
     {
      OFFSET 0.000000 -1.423100 5.872300
     }
    }
   }
  }
 }
}
MOTION
Frames: 8
Frame Time: 0.008333
0.000000 85.388000 0.000000 0.000000 -5.767877 0.000000 0.000000 11.653817 0.000000 0.000000 -5.885947 0.000000 0.000000 -0.000000 0.000000 0.000000 -0.000000 0.000000 0.000000 12.528835 0.000000 0.000000 0.711642 0.000000 0.000000 -0.000000 0.000000 0.000000 0.000000 -90.000000 0.000000 -2.309062 0.000000 0.000000 2.309062 0.000000 0.000000 -0.000000 0.000000 0.000000 -0.000000 90.000000 0.000000 -2.309062 0.000000 0.000000 2.309062 0.000000 0.000000 8.520406 0.000000 0.000000 1.905762 0.000000 -0.000000 -4.658285 0.000000 0.000000 -0.000000 0.000000 0.000000 8.520406 0.000000 0.000000 1.905762 0.000000 -0.000000 -4.658285 0.000000 0.000000 -0.000000 0.000000
-56.083421 57.800624 11.651138 178.947131 -51.900371 -2.888858 3.088056 20.790002 3.680455 1.564850 11.906747 1.953749 2.032318 14.874060 2.508002 1.608641 11.887533 1.949047 -2.488672 13.838857 0.837634 -4.982687 -10.004251 2.563691 -1.116783 3.003175 0.111794 -6.802683 -14.898241 -5.043837 -22.836848 -9.613867 86.516870 -13.028753 -10.514192 -27.520828 -12.492250 -6.170856 3.396769 -11.686745 -45.018365 41.138967 -0.459653 -10.552168 18.049679 -7.987881 -3.487744 0.012017 5.451452 -19.364976 -3.054395 -32.603762 74.587922 -37.676593 6.508371 -15.982708 12.965724 -0.023348 -0.043703 0.038657 -7.473776 -17.379101 4.587584 86.842312 81.140662 85.658150 0.228400 -21.295668 -18.370162 0.035410 0.019294 0.032152
-56.087222 57.801509 11.651883 178.963186 -51.912389 -2.900025 3.102753 20.786731 3.692902 1.571436 11.904015 1.956585 2.078657 14.854871 2.511976 1.568215 11.906153 1.961459 -2.463656 13.868974 0.880608 -4.969313 -9.939723 2.643993 -1.125814 3.031172 0.119873 -6.876337 -14.893234 -5.024907 -22.831103 -9.580668 86.552577 -13.024049 -10.520694 -27.525333 -12.446698 -6.160863 3.399271 -11.653371 -45.022297 41.058414 -0.399707 -10.665967 17.966980 -8.005263 -3.429132 -0.035119 5.452775 -19.347341 -3.057765 -32.608012 74.582080 -37.674506 6.509134 -15.982462 12.967052 -0.019657 -0.042411 0.036458 -7.479108 -17.368137 4.584802 86.842722 81.142381 85.657246 0.228621 -21.295852 -18.367976 0.039673 0.018949 0.031289
-56.091075 57.802316 11.652861 178.976948 -51.924929 -2.911788 3.137690 20.774578 3.708820 1.583468 11.900814 1.962248 2.056088 14.866485 2.519331 1.553184 11.912716 1.967669 -2.409101 13.894611 0.926795 -4.968752 -9.878952 2.724518 -1.126103 3.043450 0.121376 -6.954546 -14.891045 -5.023770 -22.803121 -9.538858 86.597588 -12.988286 -10.507428 -27.539424 -12.416813 -6.157626 3.396686 -11.646722 -45.019972 41.026019 -0.306353 -10.763430 17.870329 -8.013846 -3.384267 -0.064322 5.452441 -19.331989 -3.057727 -32.618075 74.577354 -37.676039 6.494319 -15.974619 12.968378 -0.023483 -0.040691 0.021872 -7.483615 -17.355714 4.584219 86.851685 81.143623 85.664892 0.225506 -21.300488 -18.363972 0.046678 0.020369 0.029849
-56.092871 57.804288 11.653160 179.024316 -51.945709 -2.963631 3.121498 20.792493 3.727050 1.585188 11.900324 1.963195 2.058315 14.865818 2.520616 1.585211 11.900267 1.963245 -2.421683 13.918330 0.960029 -4.936407 -9.796050 2.824658 -1.156341 3.067952 0.132642 -6.975411 -14.901097 -5.028758 -22.818146 -9.493430 86.622619 -13.007509 -10.536824 -27.538597 -12.448515 -6.140749 3.406585 -11.618969 -45.011202 41.001686 -0.219577 -10.863333 17.765110 -8.003848 -3.349773 -0.086994 5.423150 -19.307632 -3.043396 -32.615585 74.572807 -37.667038 6.475012 -15.979209 12.967704 -0.009478 -0.028232 0.020893 -7.508447 -17.334525 4.598294 86.872117 81.149279 85.682424 0.240220 -21.291523 -18.350266 0.020156 0.013598 0.016068
-56.096473 57.804846 11.654367 179.038011 -51.958188 -2.978380 3.133108 20.787665 3.736147 1.589763 11.897443 1.965408 2.064092 14.862299 2.523628 1.618891 11.881415 1.954060 -2.450624 13.965047 1.009201 -4.903973 -9.706842 2.927449 -1.184871 3.134137 0.138011 -7.012258 -14.926964 -5.002545 -22.831145 -9.460415 86.635607 -13.014970 -10.551636 -27.544504 -12.471965 -6.102831 3.418202 -11.633919 -44.970450 40.996651 -0.130946 -10.981030 17.652384 -7.973465 -3.326226 -0.112047 5.419906 -19.292645 -3.045796 -32.599272 74.572285 -37.643370 6.482548 -15.980466 12.968812 -0.015599 -0.026084 0.014018 -7.516176 -17.322130 4.600297 86.876568 81.149348 85.686549 0.238691 -21.292713 -18.348720 0.021121 0.013915 0.015649
-56.100417 57.805216 11.655554 179.049637 -51.970234 -2.988551 3.146464 20.784510 3.739474 1.595159 11.895219 1.967591 2.070952 14.859666 2.526560 1.620193 11.888470 1.957968 -2.399692 14.017993 1.089355 -4.915221 -9.655632 3.000574 -1.200854 3.147569 0.144080 -7.013948 -14.939683 -5.019856 -22.849861 -9.422523 86.658505 -13.014713 -10.562794 -27.556827 -12.433693 -6.087712 3.417655 -11.729639 -44.879283 41.049014 0.001933 -11.125630 17.522115 -7.933594 -3.313386 -0.141003 5.416250 -19.279003 -3.054165 -32.569907 74.574519 -37.608497 6.492929 -15.982361 12.971723 -0.023472 -0.024321 0.006840 -7.522923 -17.311429 4.598252 86.876778 81.149457 85.683379 0.239572 -21.293713 -18.343859 0.020726 0.016206 0.013369
-56.105312 57.804841 11.657033 179.039623 -51.978367 -2.974387 3.165844 20.779002 3.733795 1.600588 11.895830 1.969768 2.077561 14.860057 2.529345 1.619603 11.896556 1.959643 -2.368514 14.058815 1.151242 -4.903163 -9.598590 3.082747 -1.216542 3.149127 0.155095 -6.995315 -14.953691 -5.048390 -22.874214 -9.391820 86.672860 -13.009428 -10.560171 -27.571300 -12.429465 -6.080999 3.425681 -11.766716 -44.867575 41.062934 0.045065 -11.222696 17.417671 -7.897983 -3.307473 -0.172458 5.425803 -19.270917 -3.068658 -32.542994 74.576580 -37.572749 6.499739 -15.960466 12.966248 0.010612 -0.043180 0.005184 -7.514652 -17.306738 4.589333 86.867027 81.143931 85.671535 0.225844 -21.304145 -18.343785 0.040723 0.025216 0.018847
